<svg xmlns="http://www.w3.org/2000/svg" xmlns:xlink="http://www.w3.org/1999/xlink" width="500" zoomAndPan="magnify" viewBox="0 0 375 599.999999" height="800" preserveAspectRatio="xMidYMid meet" version="1.0"><path fill="#ffffff" d="M 55.382812 53.425781 C 45.015625 94.707031 42.867188 137.78125 58.539062 178.050781 C 71.765625 212.117188 96.316406 242.007812 130.101562 257.101562 C 163.882812 272.195312 202.257812 272.851562 236.695312 261.277344 C 253.441406 255.667969 271.492188 247.316406 283.171875 233.59375 C 294.851562 219.871094 299.261719 200.722656 289.964844 184.496094 C 271.671875 152.636719 226.210938 145.417969 193.4375 152.457031 C 157.152344 160.214844 127.71875 186.402344 108.828125 217.488281 C 71.828125 278.277344 69.441406 359.894531 104.894531 421.9375 C 127.179688 460.894531 164.300781 487.921875 204.519531 506.238281 C 248.136719 526.101562 296.519531 536.664062 344.484375 532.070312 C 355.6875 530.996094 355.925781 513.515625 344.484375 514.351562 C 306.769531 517.214844 269.289062 511.964844 233.597656 499.316406 C 197.90625 486.667969 165.910156 468.832031 140.886719 442.28125 C 97.210938 395.988281 86.542969 325.289062 105.132812 265.632812 C 114.429688 235.863281 131.292969 207.105469 156.078125 187.714844 C 180.867188 168.328125 216.617188 159.4375 247.71875 170.355469 C 261.78125 175.308594 280.609375 186.285156 281.207031 203.109375 C 281.863281 221.246094 265 233.476562 250.699219 240.933594 C 221.503906 256.144531 186.230469 260.558594 154.292969 252.507812 C 117.171875 243.140625 88.628906 216.589844 72.542969 182.289062 C 54.25 143.332031 53.652344 96.796875 61.9375 55.214844 C 62.769531 50.917969 56.394531 49.007812 55.320312 53.363281 Z M 55.382812 53.425781 " fill-opacity="1" fill-rule="nonzero"/><path fill="#ffffff" d="M 299.914062 462.507812 C 298.664062 469.308594 301.703125 474.199219 304.683594 480.164062 C 307.898438 486.789062 311.414062 493.289062 315.109375 499.675781 C 318.328125 505.222656 322.082031 510.53125 326.550781 515.183594 C 331.4375 520.316406 337.515625 523.597656 342.757812 528.191406 L 344.542969 514.527344 C 337.691406 518.050781 331.972656 524.371094 326.492188 529.742188 C 321.007812 535.113281 316.0625 540.421875 311.296875 546.148438 C 301.347656 558.140625 291.753906 570.429688 285.734375 584.867188 C 282.21875 593.277344 295.328125 600.4375 300.988281 593.757812 C 310.34375 582.660156 317.910156 570.25 327.265625 559.09375 C 331.851562 553.664062 336.441406 548.238281 341.328125 543.046875 C 346.214844 537.855469 352.289062 532.664062 356.460938 526.460938 C 359.621094 521.6875 356.402344 515.125 351.277344 513.695312 C 340.3125 510.589844 331.613281 497.347656 325.894531 488.398438 C 322.5 483.089844 319.160156 477.71875 315.585938 472.527344 C 312.011719 467.339844 309.449219 462.863281 303.3125 460.777344 C 302 460.359375 300.214844 461.3125 299.976562 462.683594 Z M 299.914062 462.507812 " fill-opacity="1" fill-rule="nonzero"/></svg>
